<?xml version="1.0" standalone="no"?>
<!DOCTYPE svg PUBLIC "-//W3C//DTD SVG 20010904//EN"
 "http://www.w3.org/TR/2001/REC-SVG-20010904/DTD/svg10.dtd">
<svg version="1.0" xmlns="http://www.w3.org/2000/svg"
 width="2493.000000pt" height="2493.000000pt" viewBox="0 0 2493.000000 2493.000000"
 preserveAspectRatio="xMidYMid meet">
<metadata>
Created by potrace 1.14, written by Peter Selinger 2001-2017
</metadata>
<g transform="translate(0.000000,2493.000000) scale(0.100000,-0.100000)"
fill="#000000" stroke="none">
<path d="M9649 24903 c-2 -26 -3 -33 -29 -234 -6 -41 -12 -85 -14 -96 -3 -11
-7 -38 -10 -59 -12 -72 -55 -288 -81 -404 -15 -63 -28 -122 -30 -130 -21 -99
-148 -538 -204 -705 -48 -145 -138 -402 -150 -430 -5 -11 -21 -54 -36 -95 -15
-41 -33 -88 -41 -105 -7 -16 -31 -77 -54 -135 -22 -58 -50 -125 -61 -149 -11
-24 -29 -64 -39 -90 -34 -87 -188 -416 -282 -606 -126 -254 -213 -416 -358
-670 -51 -91 -186 -315 -228 -380 -122 -189 -203 -313 -222 -340 -12 -16 -64
-91 -116 -165 -105 -150 -99 -141 -243 -329 -99 -129 -305 -381 -381 -465
-660 -737 -1251 -1215 -1985 -1608 -38 -21 -79 -42 -90 -47 -40 -18 -193 -90
-328 -155 -75 -36 -139 -66 -141 -66 -2 0 -52 -22 -110 -50 -58 -27 -108 -50
-111 -50 -3 0 -33 -13 -67 -29 -72 -33 -347 -149 -488 -206 -52 -20 -108 -43
-125 -50 -16 -8 -133 -52 -260 -100 -126 -48 -239 -90 -250 -95 -23 -10 -124
-46 -330 -118 -209 -74 -610 -204 -845 -275 -47 -14 -123 -37 -169 -51 -46
-14 -90 -26 -98 -26 -7 0 -13 -6 -13 -12 0 -7 66 -92 146 -188 250 -301 334
-402 484 -585 58 -70 110 -133 115 -139 6 -6 30 -36 55 -66 25 -30 52 -64 61
-75 10 -11 63 -76 120 -145 57 -69 157 -190 223 -270 66 -80 138 -167 160
-195 22 -27 43 -52 47 -55 3 -3 48 -57 99 -120 172 -210 622 -754 668 -808 25
-29 68 -82 96 -116 86 -106 128 -157 202 -246 39 -47 158 -191 264 -320 197
-239 327 -396 345 -416 6 -6 24 -29 40 -50 17 -21 58 -72 93 -114 35 -41 69
-82 75 -90 11 -14 418 -506 459 -555 36 -43 466 -564 668 -810 118 -143 221
-268 229 -277 9 -9 21 -23 26 -30 33 -42 480 -584 485 -588 3 -3 33 -39 65
-80 33 -41 62 -77 65 -80 3 -3 37 -43 76 -90 38 -47 124 -150 190 -230 66 -80
178 -215 248 -300 164 -199 154 -186 206 -250 25 -30 47 -57 50 -60 3 -3 35
-41 70 -85 36 -44 70 -85 75 -91 6 -6 80 -96 165 -199 85 -104 213 -259 284
-344 71 -86 143 -174 161 -196 73 -88 109 -132 145 -175 53 -63 394 -477 590
-715 91 -110 172 -209 182 -220 21 -25 508 -615 556 -675 21 -24 51 -60 68
-80 17 -19 147 -177 289 -350 142 -173 261 -317 264 -320 3 -3 33 -39 66 -80
33 -41 62 -77 65 -80 3 -3 80 -95 170 -205 91 -110 173 -209 182 -220 9 -11
65 -78 123 -150 59 -71 117 -141 129 -155 11 -14 84 -101 161 -195 174 -212
174 -211 208 -251 l27 -32 68 25 c37 13 93 33 124 44 64 21 268 100 320 123
18 9 78 34 133 57 55 22 118 49 140 59 22 10 65 30 95 43 51 23 92 42 310 143
106 48 756 375 865 434 513 277 688 375 874 488 41 24 95 56 120 70 54 30 324
194 466 284 220 139 676 447 740 500 6 5 46 36 90 69 133 101 158 121 330 269
391 336 788 728 1209 1193 43 48 87 97 98 109 10 13 29 34 41 48 12 14 46 54
77 90 30 36 57 67 60 70 3 3 25 30 50 60 25 30 47 57 50 60 3 3 50 61 105 130
55 69 102 127 105 130 3 3 17 21 30 40 13 19 27 37 31 40 10 8 257 340 344
462 80 113 328 485 396 595 267 428 549 958 696 1308 14 33 33 78 42 100 10
22 30 72 46 110 15 39 31 79 36 90 29 66 120 325 174 493 l33 103 -211 262
c-116 144 -213 264 -217 267 -3 3 -21 25 -40 50 -19 25 -42 54 -52 65 -33 40
-140 170 -151 185 -21 27 -341 424 -358 445 -10 11 -46 56 -81 100 -34 44 -71
89 -80 100 -9 11 -107 133 -218 270 -337 418 -425 527 -435 539 -6 6 -73 89
-149 185 -76 96 -145 181 -152 190 -7 9 -53 66 -101 126 -194 241 -499 621
-515 640 -9 11 -112 139 -228 285 -116 146 -220 274 -229 286 -10 12 -202 250
-426 530 -225 280 -420 523 -434 540 -14 17 -38 46 -53 65 -15 19 -38 48 -51
64 -14 17 -77 95 -141 175 -64 80 -122 152 -129 160 -11 14 -292 363 -309 385
-68 85 -253 315 -266 330 -9 11 -32 40 -51 65 -19 25 -39 50 -45 56 -6 6 -24
28 -41 50 -16 21 -70 88 -120 150 -49 61 -101 126 -115 144 -14 18 -29 38 -35
44 -5 6 -41 49 -78 96 -38 47 -74 92 -80 100 -7 8 -48 60 -92 115 -44 55 -88
109 -97 120 -13 16 -487 608 -632 789 -17 22 -36 44 -41 50 -6 6 -90 111 -188
234 -98 123 -185 231 -192 240 -8 9 -48 60 -90 112 -42 52 -82 102 -88 110
-210 260 -915 1139 -947 1180 -49 63 -122 153 -148 185 -10 11 -107 132 -217
270 -110 137 -207 259 -217 270 -9 11 -119 148 -244 305 -125 157 -239 299
-253 316 -33 40 -48 59 -91 114 -19 25 -37 47 -40 50 -3 3 -69 84 -145 180
-77 96 -145 182 -152 190 -49 61 -123 153 -149 186 -18 21 -181 224 -363 451
-181 227 -336 421 -343 432 -16 26 -28 27 -29 4z"/>
<path d="M12440 23543 c-152 -285 -344 -523 -516 -638 -32 -21 -63 -43 -68
-47 -5 -4 17 -40 50 -80 32 -40 66 -82 74 -92 8 -10 27 -33 41 -50 14 -17 317
-395 674 -841 357 -445 660 -824 674 -840 14 -17 40 -48 56 -69 17 -22 45 -57
63 -80 18 -23 39 -48 45 -56 7 -8 140 -175 297 -370 156 -195 311 -389 344
-430 33 -41 63 -77 66 -80 3 -3 18 -23 35 -45 16 -22 31 -42 34 -45 5 -4 96
-117 138 -170 7 -8 47 -58 90 -111 43 -52 92 -112 108 -133 64 -81 537 -672
553 -691 9 -11 60 -74 113 -140 272 -340 443 -552 457 -570 10 -11 89 -110
177 -220 89 -110 168 -209 177 -220 10 -11 141 -175 293 -365 152 -190 284
-354 293 -365 9 -11 33 -40 52 -65 19 -25 37 -47 40 -50 4 -3 109 -133 235
-290 125 -157 241 -301 256 -320 16 -19 81 -101 146 -181 65 -80 129 -161 143
-179 14 -18 30 -38 35 -44 6 -6 94 -114 195 -241 101 -126 207 -257 234 -291
28 -33 62 -75 76 -94 14 -18 30 -38 35 -44 9 -10 53 -64 105 -130 8 -10 27
-33 41 -50 14 -17 117 -146 229 -286 112 -140 209 -262 217 -270 20 -24 11
-13 548 -680 104 -129 192 -237 195 -240 3 -3 21 -25 40 -50 28 -36 407 -506
544 -674 17 -21 110 -136 207 -255 l175 -216 -32 -110 c-128 -437 -255 -778
-465 -1245 -128 -287 -379 -751 -602 -1115 -211 -345 -552 -835 -807 -1160
-82 -104 -303 -379 -309 -385 -4 -3 -44 -50 -90 -105 -47 -55 -92 -107 -100
-116 -9 -9 -35 -38 -58 -65 -73 -85 -184 -208 -338 -374 -180 -193 -604 -607
-800 -781 -27 -24 -55 -49 -61 -54 -6 -6 -39 -35 -74 -65 -34 -30 -68 -59 -74
-65 -22 -20 -83 -71 -126 -105 -24 -19 -48 -40 -54 -46 -11 -10 -330 -252
-377 -286 -313 -222 -668 -453 -999 -650 -63 -38 -122 -73 -130 -78 -83 -52
-517 -299 -675 -385 -38 -21 -74 -41 -80 -45 -5 -4 -68 -38 -140 -76 -71 -37
-179 -94 -240 -126 -121 -64 -645 -325 -765 -381 -188 -88 -358 -164 -585
-262 -97 -42 -390 -155 -505 -196 l-135 -47 -1 -276 c-1 -201 1 -276 10 -276
12 0 368 115 401 130 11 5 40 16 65 24 111 37 228 79 257 92 17 8 34 14 38 14
21 0 918 356 984 390 28 15 111 50 117 50 3 0 31 12 62 26 31 15 109 49 172
76 63 27 153 67 198 89 46 21 85 39 87 39 2 0 56 25 121 56 66 30 160 74 209
97 127 59 857 424 995 498 112 60 285 153 405 219 33 19 77 44 97 57 21 13 40
23 43 23 2 0 50 27 106 60 55 33 105 60 110 60 5 0 9 5 9 10 0 6 5 10 11 10
19 0 369 217 629 390 200 133 691 484 785 562 6 5 37 29 70 54 33 25 67 50 75
57 8 7 33 26 55 42 48 36 418 327 425 335 3 3 28 23 55 45 28 21 52 42 55 45
3 3 41 35 85 70 44 35 82 67 85 70 3 3 28 24 55 45 28 22 55 45 60 51 9 9 77
67 164 139 13 11 29 25 35 30 6 6 85 75 176 154 91 79 172 151 181 160 9 9 31
29 50 46 52 45 238 214 294 266 28 26 70 66 95 89 367 340 1158 1137 1345
1356 6 6 45 49 87 95 42 46 85 93 95 105 17 20 146 165 168 188 6 6 35 40 65
76 30 35 60 69 65 76 6 6 33 37 60 69 28 32 55 63 60 69 35 39 348 421 422
516 6 8 40 51 75 95 36 44 84 107 109 140 24 33 47 62 50 65 19 16 292 394
525 726 l44 62 -53 59 c-28 33 -79 90 -112 128 -33 38 -67 76 -75 85 -8 9 -44
49 -80 90 -36 41 -67 77 -70 80 -3 3 -53 59 -110 125 -58 66 -107 122 -110
125 -3 3 -52 59 -110 125 -58 66 -109 125 -115 131 -76 85 -138 156 -161 184
-16 19 -34 40 -40 45 -11 10 -108 121 -214 244 -31 37 -130 149 -176 200 -22
26 -54 62 -71 81 -34 39 -120 137 -167 190 -17 19 -74 85 -125 145 -52 61 -99
115 -105 120 -6 6 -56 62 -111 125 -55 63 -114 131 -131 150 -61 68 -130 147
-185 211 -90 103 -289 331 -323 369 -17 19 -76 87 -131 150 -54 63 -106 122
-115 131 -8 8 -35 40 -60 69 -25 30 -52 61 -60 70 -8 9 -44 49 -80 90 -36 41
-67 77 -70 80 -3 3 -50 57 -105 120 -55 63 -112 128 -126 145 -15 16 -80 91
-144 165 -65 74 -146 166 -179 204 -34 38 -73 83 -88 100 -55 64 -71 83 -126
145 -108 123 -147 168 -197 226 -27 32 -54 63 -60 69 -5 6 -39 45 -75 86 -36
41 -67 77 -70 80 -3 3 -34 39 -70 80 -36 41 -79 91 -96 110 -17 19 -84 96
-149 170 -65 74 -139 160 -165 190 -27 30 -58 66 -70 80 -12 14 -45 52 -74 85
-29 33 -86 98 -126 145 -41 47 -77 87 -80 90 -3 3 -35 39 -70 80 -35 41 -66
77 -69 80 -3 3 -33 37 -66 75 -33 39 -64 75 -70 81 -13 14 -100 114 -205 234
-45 52 -96 111 -114 131 -17 20 -69 80 -116 134 -47 54 -137 158 -200 230 -63
73 -140 160 -170 195 -30 35 -62 71 -70 80 -8 10 -40 46 -70 81 -30 34 -102
117 -160 183 -58 66 -152 174 -209 241 -139 161 -204 235 -217 249 -5 6 -57
65 -114 131 -57 66 -118 136 -136 155 -17 19 -109 125 -204 235 -246 285 -274
317 -285 329 -11 12 -214 246 -249 286 -11 14 -68 79 -126 145 -57 66 -111
128 -120 139 -8 10 -26 31 -40 46 -14 15 -45 52 -70 80 -25 29 -53 62 -64 74
-10 12 -37 43 -60 69 -22 27 -50 59 -61 71 -11 12 -45 51 -75 86 -30 35 -116
134 -190 219 -75 86 -219 253 -320 371 -102 118 -187 217 -190 220 -5 5 -134
154 -256 295 -68 79 -184 214 -211 245 -67 78 -345 404 -388 455 -27 33 -52
62 -55 65 -4 3 -67 77 -140 165 -74 88 -136 161 -140 163 -3 1 -17 -19 -30
-45z"/>
<path d="M1430 14166 l0 -1828 78 -97 c42 -53 80 -98 83 -101 3 -3 23 -27 45
-55 21 -27 49 -61 61 -75 11 -14 139 -171 284 -350 294 -363 765 -945 811
-1002 16 -20 37 -46 46 -56 10 -11 127 -156 262 -323 135 -166 309 -382 388
-478 79 -97 148 -183 155 -191 7 -8 89 -109 182 -225 94 -115 231 -284 305
-376 74 -91 151 -185 170 -209 50 -61 258 -319 348 -430 42 -52 79 -97 82
-100 3 -3 32 -39 65 -80 102 -126 229 -284 247 -305 9 -11 62 -76 118 -145 55
-69 107 -132 114 -141 13 -16 260 -321 283 -349 61 -76 270 -334 296 -365 18
-22 91 -112 162 -200 71 -88 135 -167 142 -175 7 -8 37 -46 69 -85 31 -38 66
-81 77 -95 12 -14 78 -95 147 -180 69 -85 130 -162 137 -170 7 -8 34 -42 60
-75 26 -33 53 -65 58 -71 6 -6 24 -28 40 -49 17 -21 42 -52 56 -69 14 -17 65
-80 114 -141 49 -60 97 -119 106 -130 10 -11 66 -81 126 -155 60 -74 167 -207
238 -295 72 -88 137 -169 145 -179 8 -11 29 -35 45 -55 17 -20 59 -72 95 -116
36 -44 69 -85 75 -92 5 -6 22 -27 36 -45 35 -43 686 -847 707 -873 15 -17 161
-197 199 -245 6 -8 45 -55 85 -105 82 -100 416 -512 435 -535 6 -8 44 -55 85
-105 40 -49 132 -162 203 -250 71 -88 176 -218 234 -290 58 -71 111 -137 118
-145 6 -8 36 -44 65 -80 30 -36 110 -135 178 -220 68 -85 127 -157 130 -160 3
-3 50 -61 105 -129 55 -69 108 -134 117 -145 9 -12 41 -50 71 -86 29 -36 129
-159 222 -275 146 -181 325 -402 383 -471 9 -11 77 -95 151 -187 74 -92 136
-165 138 -164 1 2 5 870 7 1930 l5 1927 -97 118 c-53 64 -99 119 -102 122 -3
3 -31 37 -62 75 -30 39 -104 129 -164 201 -60 72 -125 151 -144 175 -19 23
-42 50 -50 59 -8 8 -30 34 -48 57 -18 23 -94 115 -168 205 -74 90 -140 170
-147 178 -56 68 -206 250 -223 270 -12 14 -59 70 -104 125 -45 55 -96 118
-115 140 -238 288 -346 419 -375 455 -19 24 -40 48 -45 54 -6 6 -30 36 -55 66
-25 30 -52 64 -62 75 -9 11 -50 61 -90 110 -41 50 -155 187 -252 305 -216 260
-173 209 -401 485 -209 254 -287 347 -319 385 -12 14 -58 70 -103 125 -86 106
-150 183 -408 495 -88 107 -206 250 -263 319 -57 69 -121 146 -142 171 -21 25
-106 128 -190 230 -329 400 -455 553 -465 564 -6 6 -40 47 -75 91 -36 44 -75
91 -87 105 -19 23 -363 440 -400 485 -9 11 -30 36 -47 56 -17 20 -47 55 -66
79 -30 37 -214 260 -268 325 -9 11 -48 58 -87 105 -38 47 -74 90 -80 96 -5 7
-26 31 -45 55 -30 37 -307 373 -358 434 -10 11 -46 56 -82 100 -36 44 -75 91
-86 105 -12 14 -111 133 -220 265 -109 132 -229 278 -268 325 -39 47 -88 106
-108 130 -20 25 -94 115 -165 200 -70 86 -166 202 -213 259 -47 57 -90 109
-95 115 -6 6 -96 115 -200 241 -104 127 -195 237 -202 245 -63 76 -99 118
-228 275 -81 99 -164 200 -185 225 -20 25 -71 86 -112 135 -286 347 -359 435
-406 494 -30 36 -63 77 -76 91 -12 14 -84 102 -161 195 -77 94 -142 172 -145
175 -3 3 -24 27 -45 55 -22 27 -50 61 -61 75 -39 46 -177 212 -369 445 -104
127 -192 232 -195 235 -3 3 -21 25 -40 50 -19 25 -37 47 -40 50 -4 3 -37 43
-76 90 -38 47 -77 94 -86 104 -17 19 -18 -66 -18 -1808z"/>
<path d="M21853 9542 c-531 -545 -1530 -1532 -1823 -1802 -19 -18 -98 -92
-175 -165 -179 -169 -225 -213 -266 -251 -19 -16 -70 -64 -114 -105 -69 -64
-243 -223 -278 -254 -7 -6 -41 -37 -78 -70 -36 -33 -83 -76 -105 -95 -187
-167 -237 -212 -289 -257 -470 -409 -873 -737 -1208 -981 -397 -290 -975 -649
-1482 -922 -44 -24 -109 -59 -145 -78 -36 -19 -87 -47 -115 -62 -68 -38 -621
-314 -775 -388 -181 -86 -322 -152 -326 -152 -2 0 -41 -17 -86 -39 -46 -21
-117 -53 -158 -71 -41 -18 -104 -46 -140 -62 -224 -103 -1174 -488 -1202 -488
-8 0 -18 -4 -24 -10 -5 -5 -30 -16 -54 -24 -44 -14 -307 -109 -405 -146 -57
-22 -447 -154 -485 -164 -14 -4 -34 -11 -45 -16 -11 -5 -65 -23 -120 -39 -55
-17 -105 -34 -111 -38 -11 -8 -16 -383 -5 -383 3 0 42 12 86 26 44 14 87 27
95 29 8 2 58 17 110 34 52 16 169 53 260 81 91 29 291 92 445 142 154 49 336
108 405 130 69 21 139 45 155 51 17 6 35 12 40 13 12 3 737 245 925 310 74 26
185 63 245 84 579 199 1597 574 1782 656 17 8 34 14 38 14 4 0 21 6 38 14 18
8 95 40 172 72 144 58 434 181 540 229 33 15 92 41 130 58 68 30 731 363 890
447 251 132 678 367 911 501 94 54 186 106 205 117 36 21 233 137 259 152 8 5
107 65 220 133 516 310 1321 838 1665 1091 25 18 116 85 170 124 282 204 761
576 980 760 55 46 120 100 144 121 24 20 49 41 55 46 6 6 47 42 91 80 44 38
94 81 110 96 17 16 42 38 56 51 86 77 161 147 292 272 l148 141 -43 38 c-24
22 -63 58 -88 81 -25 22 -88 79 -140 126 -52 47 -117 105 -144 130 -58 53 -48
44 -161 145 -49 44 -94 85 -100 91 -5 5 -55 50 -110 100 -55 49 -112 100 -126
114 -25 24 -148 134 -193 173 -12 10 -41 37 -66 60 -25 23 -84 77 -131 119
l-85 77 -261 -267z"/>
<path d="M22390 7048 c-175 -137 -629 -473 -815 -603 -371 -259 -704 -482
-1000 -669 -93 -60 -186 -118 -205 -131 -77 -51 -551 -339 -665 -405 -16 -10
-97 -57 -180 -105 -82 -48 -168 -97 -190 -109 -22 -13 -92 -52 -155 -88 -63
-36 -137 -78 -165 -93 -27 -15 -68 -38 -90 -50 -22 -12 -67 -37 -100 -55 -58
-31 -119 -65 -235 -127 -102 -56 -468 -248 -522 -274 -10 -5 -28 -14 -40 -21
-69 -36 -478 -238 -482 -238 -2 0 -48 -21 -102 -46 -55 -25 -117 -54 -139 -64
-22 -9 -60 -26 -85 -38 -297 -133 -1174 -480 -1530 -606 -25 -8 -101 -36 -170
-61 -69 -26 -174 -64 -235 -85 -60 -22 -168 -60 -240 -85 -295 -105 -558 -195
-1065 -364 -464 -155 -974 -323 -990 -326 -3 0 -39 -12 -80 -25 -41 -13 -77
-24 -80 -25 -3 -1 -34 -11 -70 -22 -83 -27 -516 -162 -685 -214 -71 -22 -155
-48 -185 -58 l-55 -18 -1 -147 c-2 -146 -2 -147 20 -140 11 4 57 17 101 30 82
23 559 166 765 230 63 20 167 51 230 71 63 19 126 38 140 43 14 5 86 27 160
50 177 54 406 126 610 191 91 29 170 54 175 55 6 2 24 7 40 13 17 6 102 34
190 62 233 75 947 309 970 319 11 4 103 36 205 70 102 34 192 64 200 67 8 3
20 7 25 9 18 5 348 121 410 143 33 12 67 24 75 26 29 7 434 155 895 326 256
94 647 248 750 294 17 7 104 46 195 85 91 40 188 83 215 95 28 13 73 33 100
45 28 13 102 47 165 77 63 30 156 73 205 96 155 72 849 419 875 437 14 10 28
18 33 19 9 1 31 12 237 121 91 48 206 109 255 135 98 52 183 98 230 125 17 9
71 39 120 65 110 59 118 63 430 238 138 77 267 149 288 161 21 11 46 26 55 31
9 6 98 56 197 113 99 57 187 108 195 113 8 5 154 90 323 189 329 193 471 277
717 428 85 53 164 100 175 106 11 6 55 33 98 60 84 52 83 49 32 102 -11 11
-51 56 -90 99 -38 44 -93 104 -121 134 -28 31 -66 74 -85 95 -19 22 -43 49
-54 61 -11 11 -36 38 -56 60 -60 68 -56 68 -139 3z"/>
<path d="M22719 5734 c-101 -58 -209 -120 -239 -136 -30 -17 -100 -57 -155
-88 -55 -31 -125 -70 -155 -87 -30 -17 -71 -39 -90 -50 -54 -30 -246 -135
-335 -183 -44 -24 -84 -46 -90 -50 -5 -4 -68 -38 -140 -75 -173 -90 -285 -150
-370 -195 -166 -90 -981 -494 -1210 -600 -33 -15 -125 -58 -205 -95 -80 -37
-215 -98 -300 -137 -85 -38 -173 -77 -195 -87 -72 -33 -512 -219 -652 -277
-76 -31 -151 -62 -168 -69 -48 -21 -517 -203 -618 -240 -51 -18 -191 -69 -312
-113 -121 -44 -247 -89 -280 -101 -50 -18 -333 -120 -560 -201 -33 -12 -134
-48 -225 -80 -91 -32 -230 -82 -310 -110 -80 -29 -156 -56 -170 -60 -14 -5
-97 -34 -185 -65 -88 -31 -216 -76 -285 -100 -69 -24 -354 -123 -635 -220
-1069 -370 -2396 -813 -2850 -950 -66 -20 -127 -40 -135 -44 -13 -7 -15 -92
-16 -665 0 -463 3 -656 10 -653 36 14 345 125 686 247 217 78 442 159 500 180
58 21 256 92 440 158 184 66 353 127 375 135 22 8 81 29 130 47 50 17 169 60
265 95 96 34 202 73 235 84 33 12 186 67 340 123 154 55 303 109 330 118 28
10 165 59 305 110 298 108 447 161 660 237 85 30 164 59 175 64 11 5 79 29
150 54 72 26 186 67 255 92 69 24 136 48 150 53 14 5 77 27 140 50 262 95 368
133 430 155 295 104 468 167 485 175 11 5 58 22 105 38 116 40 537 190 580
207 58 23 399 145 406 145 3 0 20 6 37 14 18 8 52 21 77 29 25 8 97 34 160 57
63 23 169 61 235 85 222 79 380 136 415 149 19 8 114 42 210 76 96 34 184 65
195 70 11 5 40 15 65 24 25 8 151 53 280 100 129 46 291 105 360 129 69 25
208 75 310 112 102 36 255 91 340 121 85 31 178 64 205 74 28 11 165 60 305
110 140 50 278 99 305 110 148 55 281 103 290 105 6 1 24 7 40 14 17 7 42 15
58 18 21 4 27 11 28 32 1 39 5 1841 4 1841 -1 0 -84 -48 -186 -106z"/>
</g>
</svg>
