<?xml version="1.0" encoding="UTF-8" standalone="no"?>
<svg
   width="581.34583pt"
   height="182.62592pt"
   version="1.1"
   viewBox="0 0 581.34583 182.62591"
   id="svg1345"
   sodipodi:docname="SL-logo-horiz.svg"
   inkscape:version="1.2 (dc2aedaf03, 2022-05-15)"
   inkscape:export-filename="home-light.svg"
   inkscape:export-xdpi="96"
   inkscape:export-ydpi="96"
   xml:space="preserve"
   xmlns:inkscape="http://www.inkscape.org/namespaces/inkscape"
   xmlns:sodipodi="http://sodipodi.sourceforge.net/DTD/sodipodi-0.dtd"
   xmlns="http://www.w3.org/2000/svg"
   xmlns:svg="http://www.w3.org/2000/svg"><sodipodi:namedview
     id="namedview62"
     pagecolor="#000000"
     bordercolor="#000000"
     borderopacity="0.25"
     inkscape:showpageshadow="2"
     inkscape:pageopacity="0"
     inkscape:pagecheckerboard="0"
     inkscape:deskcolor="#d1d1d1"
     inkscape:document-units="pt"
     showgrid="false"
     showguides="true"
     inkscape:zoom="0.59245875"
     inkscape:cx="463.3234"
     inkscape:cy="142.62596"
     inkscape:window-width="1472"
     inkscape:window-height="706"
     inkscape:window-x="396"
     inkscape:window-y="149"
     inkscape:window-maximized="0"
     inkscape:current-layer="svg1345"><sodipodi:guide
       position="-108.31124,234.5437"
       orientation="1,0"
       id="guide478"
       inkscape:locked="false" /><sodipodi:guide
       position="192.45385,217.53615"
       orientation="1,0"
       id="guide480"
       inkscape:locked="false" /><sodipodi:guide
       position="174.69571,249.71919"
       orientation="0,-1"
       id="guide854"
       inkscape:locked="false" /><sodipodi:guide
       position="-10.127287,-55.365337"
       orientation="0,-1"
       id="guide856"
       inkscape:locked="false" /></sodipodi:namedview><defs
     id="defs1217" /><text
     xml:space="preserve"
     style="font-size:70.2671px;fill:#fefff1;stroke:#ffc107;stroke-width:0.11556"
     x="187.9174"
     y="87.854408"
     id="text399"
     inkscape:export-filename=".\home-light.svg"
     inkscape:export-xdpi="96"
     inkscape:export-ydpi="96"><tspan
       sodipodi:role="line"
       id="tspan397"
       x="187.9174"
       y="87.854408"
       style="font-style:normal;font-variant:normal;font-weight:normal;font-stretch:normal;font-size:70.2671px;font-family:Aboreto;-inkscape-font-specification:Aboreto;stroke-width:0.11556">Silberberg</tspan></text><text
     xml:space="preserve"
     style="font-size:70.2671px;fill:#fefff1;stroke:#ffc107;stroke-width:0.11556"
     x="192.44719"
     y="156.33066"
     id="text399-5"><tspan
       sodipodi:role="line"
       id="tspan397-5"
       x="192.44719"
       y="156.33066"
       style="font-style:normal;font-variant:normal;font-weight:normal;font-stretch:normal;font-size:70.2671px;font-family:Aboreto;-inkscape-font-specification:Aboreto;stroke-width:0.11556">Library</tspan></text><g
     id="g6490"
     style="fill:#fefff1;fill-opacity:1"
     transform="matrix(0.15501159,0,0,0.15501159,-9.9854123,0.30511768)"><path
       d="M 768.1,868.57 C 816.123,830.781 914.86,729.59 949.17,614.42 871.037,518.299 542.22,108.18 466.31,13.46 458.5444,103.355 379.56,292.52 242.52,355.75 179.555,386.469 116.8,405.621 92.91,412.402 l 468.93,567.84 c 52.98,-17.09 157.66,-73.527 206.26,-111.68 z"
       id="path6478"
       style="fill:#fefff1;fill-opacity:1" /><path
       d="m 1084.9,904.22 c -78,45.371 -160.57,87.371 -248.09,119.15 -103.59,37.609 -228.6,80.172 -268.63,91.969 v 61.523 l 516.55,-185.75 z"
       id="path6480"
       style="fill:#fefff1;fill-opacity:1" /><path
       d="m 82.691,430.38 v 170.68 l 465.75,574.29 0.39453,-180.52 z"
       id="path6482"
       style="fill:#fefff1;fill-opacity:1" /><path
       d="m 1064.6,845.04 c -60.215,47.23 -136.63,95.051 -219.34,136.36 -78.254,39.191 -250.55,92.016 -277.12,100.07 v 13.727 c 44.23,-13.078 156.43,-46.777 254.84,-84.156 109.25,-41.484 265.44,-139.54 265.44,-139.54 z"
       id="path6484"
       style="fill:#fefff1;fill-opacity:1" /><path
       d="m 970.52,610.02 -1.3672,4.8359 c -34.211,121.7 -135,226.3 -189.14,268.91 -50.699,39.828 -156.11,96.648 -211.86,114.73 v 26.016 c 78.359,-24.406 187.87,-76.32 248.65,-119.06 104.39,-73.535 206.34,-175.56 269.03,-268.85 l 0.5625,0.43359 c -70.617,-79.727 -463.14,-529.02 -488.58,-561.32 -8.6289,16.285 -16.414,27.18 -29.062,34.645 129.98,162.1 343.18,427.77 398.61,495.77 z"
       id="path6486"
       style="fill:#fefff1;fill-opacity:1" /><path
       d="m 1047.9,719.1 c 0,0 -139.05,145.2 -219.94,202.15 -68.352,48.098 -174,95.305 -259.77,122.02 v 17.977 c 8.3047,-2.543 22.055,-6.793 39.215,-12.254 63.191,-20.125 172.92,-56.664 229.27,-84.863 111.66,-55.777 211.48,-123.29 274.01,-184.63 0.6484,-0.63672 1.2734,-1.2734 1.9336,-1.9219 z"
       id="path6488"
       style="fill:#fefff1;fill-opacity:1" /></g></svg>
