<?xml version="1.0" encoding="UTF-8" standalone="no"?>
<svg
   width="500pt"
   height="500pt"
   version="1.1"
   viewBox="0 0 500 499.99998"
   id="svg1345"
   sodipodi:docname="SL-logo-vert.svg"
   inkscape:version="1.2 (dc2aedaf03, 2022-05-15)"
   inkscape:export-filename="..\..\..\..\SL-logo-vert.png"
   inkscape:export-xdpi="150"
   inkscape:export-ydpi="150"
   xml:space="preserve"
   xmlns:inkscape="http://www.inkscape.org/namespaces/inkscape"
   xmlns:sodipodi="http://sodipodi.sourceforge.net/DTD/sodipodi-0.dtd"
   xmlns="http://www.w3.org/2000/svg"
   xmlns:svg="http://www.w3.org/2000/svg"><sodipodi:namedview
     id="namedview62"
     pagecolor="#ffffff"
     bordercolor="#000000"
     borderopacity="0"
     inkscape:showpageshadow="2"
     inkscape:pageopacity="1"
     inkscape:pagecheckerboard="0"
     inkscape:deskcolor="#d1d1d1"
     inkscape:document-units="pt"
     showgrid="false"
     showguides="true"
     inkscape:zoom="0.4189316"
     inkscape:cx="404.60066"
     inkscape:cy="263.76621"
     inkscape:window-width="1472"
     inkscape:window-height="726"
     inkscape:window-x="396"
     inkscape:window-y="129"
     inkscape:window-maximized="0"
     inkscape:current-layer="svg1345" /><defs
     id="defs1217" /><g
     aria-label="Silberberg"
     id="text399"
     style="font-size:82.2509px;fill:#0d2650;stroke:#0d2650;stroke-width:0.135268;stroke-opacity:1"><g
       id="path1597"
       style="stroke:#0d2650;stroke-opacity:1"><path
         style="color:#000000;-inkscape-font-specification:Aboreto;stroke:#0d2650;-inkscape-stroke:none;stroke-opacity:1"
         d="m 22.692682,386.84569 0.493506,-4.93505 h 0.493505 q 3.207785,2.79653 7.238079,4.3593 4.030294,1.56276 7.978338,1.56276 5.593061,0 9.047599,-3.04328 3.454538,-3.12553 3.454538,-8.30734 0,-2.87878 -1.316015,-5.34631 -1.233763,-2.46753 -4.194796,-5.0173 -2.878781,-2.54978 -7.978337,-5.51081 -3.536789,-2.05628 -6.744574,-4.27705 -3.207785,-2.30303 -5.264058,-5.26406 -2.056272,-3.04328 -2.056272,-7.23808 0,-6.25107 4.523799,-10.03461 4.5238,-3.86579 11.926381,-3.86579 3.290036,0 7.073577,0.74026 3.783542,0.658 5.839814,1.72727 l -0.411254,4.60605 h -0.493506 q -4.688301,-5.09956 -12.008631,-5.09956 -5.264058,0 -8.471843,2.71428 -3.207785,2.63203 -3.207785,7.15583 0,3.37229 1.727269,5.83981 1.80952,2.38528 4.60605,4.3593 2.796531,1.89177 6.004316,3.70129 3.701291,2.13852 7.155829,4.5238 3.536788,2.38528 5.757563,5.75756 2.303025,3.29004 2.303025,8.30734 0,4.60606 -2.138524,8.14284 -2.138523,3.45454 -6.086566,5.42856 -3.865793,1.97403 -9.047599,1.97403 -3.290036,0 -7.731585,-0.82251 -4.441549,-0.82251 -8.471843,-2.13853 z"
         id="path1620" /><path
         style="color:#000000;-inkscape-font-specification:Aboreto;fill:#ffc107;stroke:#0d2650;-inkscape-stroke:none;stroke-opacity:1"
         d="m 40.294922,329.86133 c -4.946822,0 -8.940988,1.29183 -11.970703,3.88086 -3.029924,2.53411 -4.546875,5.90224 -4.546875,10.08593 0,2.80759 0.687489,5.2346 2.066406,7.2754 v 0.002 h 0.002 c 1.37556,1.9808 3.135182,3.73993 5.279297,5.2793 v 0.002 h 0.002 c 2.140054,1.48157 4.388725,2.90759 6.748047,4.2793 3.39719,1.97256 6.052722,3.80858 7.966797,5.5039 h 0.002 c 1.969365,1.69584 3.360738,3.3621 4.177734,4.9961 l 0.002,0.002 c 0.872204,1.63538 1.306641,3.40557 1.306641,5.31445 0,3.43889 -1.143227,6.18478 -3.431641,8.25586 -2.289437,2.01688 -5.285516,3.02734 -9.001953,3.02734 -2.623102,0 -5.275158,-0.51944 -7.955078,-1.55859 -2.67982,-1.03911 -5.084147,-2.48842 -7.216797,-4.34766 l -0.01953,-0.0156 H 23.125 l -0.505859,5.04883 0.05273,0.0176 c 2.689877,0.87833 5.51669,1.59177 8.480469,2.14062 2.963969,0.54889 5.545149,0.82422 7.74414,0.82422 3.463123,0 6.490032,-0.66084 9.078125,-1.98242 2.641773,-1.32089 4.680831,-3.13917 6.113282,-5.45313 1.432407,-2.36897 2.148437,-5.09656 2.148437,-8.17773 0,-3.35521 -0.769842,-6.13911 -2.314453,-8.3457 -1.485557,-2.25585 -3.410725,-4.18062 -5.775391,-5.7754 -2.30454,-1.59123 -4.691092,-3.10077 -7.160156,-4.52734 -2.137062,-1.20552 -4.137299,-2.4372 -6,-3.69726 -1.859481,-1.31258 -3.388208,-2.76173 -4.589844,-4.34571 -1.142532,-1.63284 -1.714843,-3.56285 -1.714843,-5.79883 0,-2.99987 1.059762,-5.36088 3.183593,-7.10351 h 0.002 c 2.124595,-1.79774 4.929991,-2.69922 8.427735,-2.69922 4.86451,0 8.845323,1.69133 11.958984,5.07812 l 0.01953,0.0215 h 0.583985 l 0.421875,-4.71094 -0.04102,-0.0215 c -1.380449,-0.71784 -3.332134,-1.29506 -5.857422,-1.73438 h -0.002 c -2.525205,-0.49394 -4.886156,-0.74023 -7.083984,-0.74023 z m 0,0.13476 c 2.188282,0 4.541814,0.24549 7.060547,0.73828 2.501382,0.43502 4.421828,1.00788 5.78125,1.70899 l -0.402344,4.49023 h -0.404297 c -3.134179,-3.39655 -7.150782,-5.09961 -12.035156,-5.09961 -3.520993,0 -6.363177,0.90917 -8.515625,2.73047 -2.153211,1.76674 -3.232422,4.17518 -3.232422,7.20703 0,2.25974 0.580422,4.22204 1.740234,5.87891 v 0.002 h 0.002 c 1.211056,1.5964 2.749919,3.05555 4.619141,4.375 h 0.002 c 1.866004,1.2623 3.869785,2.49791 6.009766,3.70508 2.465148,1.42439 4.849617,2.9309 7.15039,4.51953 2.351047,1.5856 4.262809,3.49776 5.738282,5.73828 l 0.002,0.002 c 1.526086,2.18012 2.291016,4.93501 2.291015,8.26953 0,3.06024 -0.709951,5.76069 -2.128906,8.10742 -1.418911,2.29209 -3.436314,4.09121 -6.058594,5.40234 l -0.002,0.002 c -2.566292,1.31045 -5.569679,1.96484 -9.015625,1.96484 -2.187719,0 -4.76066,-0.27252 -7.71875,-0.82031 -2.939821,-0.54441 -5.743311,-1.25419 -8.412109,-2.12305 l 0.482422,-4.8164 h 0.410156 c 2.138878,1.86016 4.549788,3.31255 7.234375,4.35351 2.693801,1.04453 5.362956,1.56836 8.003906,1.56836 3.740971,0 6.775189,-1.01973 9.091797,-3.06055 2.316812,-2.09616 3.478516,-4.88785 3.478516,-8.35742 0,-1.92885 -0.442318,-3.72275 -1.324219,-5.37695 v -0.002 c -0.827947,-1.65529 -2.233398,-3.3321 -4.210937,-5.03516 -1.924297,-1.70438 -4.58607,-3.54406 -7.988282,-5.51953 -2.356391,-1.37 -4.603245,-2.79399 -6.740234,-4.27344 -2.132121,-1.53076 -3.880186,-3.27977 -5.246094,-5.24609 l -0.002,-0.002 c -1.361808,-2.01646 -2.042969,-4.41473 -2.042969,-7.19922 0,-4.15106 1.498198,-7.47182 4.5,-9.98242 3.002013,-2.56535 6.959537,-3.84961 11.882813,-3.84961 z"
         id="path1622" /></g><g
       id="path1599"
       style="stroke:#0d2650;stroke-opacity:1"><path
         style="color:#000000;-inkscape-font-specification:Aboreto;stroke:#0d2650;-inkscape-stroke:none;stroke-opacity:1"
         d="m 72.372165,388.65521 v -57.57563 h 5.593062 v 57.57563 z"
         id="path1626" /><path
         style="color:#000000;-inkscape-font-specification:Aboreto;fill:#ffc107;stroke:#0d2650;-inkscape-stroke:none;stroke-opacity:1"
         d="m 72.304687,331.01172 v 57.71094 h 0.06836 5.660156 v -57.71094 z m 0.134766,0.13476 h 5.458984 v 57.44141 h -5.458984 z"
         id="path1628" /></g><g
       id="path1601"
       style="stroke:#0d2650;stroke-opacity:1"><path
         style="color:#000000;-inkscape-font-specification:Aboreto;stroke:#0d2650;-inkscape-stroke:none;stroke-opacity:1"
         d="m 99.350383,331.07958 h 5.593057 v 55.93061 q 1.56277,0 4.93506,-0.4935 l 13.65365,-2.05627 v 4.19479 H 99.350383 Z"
         id="path1632" /><path
         style="color:#000000;-inkscape-font-specification:Aboreto;fill:#ffc107;stroke:#0d2650;-inkscape-stroke:none;stroke-opacity:1"
         d="m 99.283203,331.01172 v 0.0684 57.64258 h 24.316407 v -4.33985 l -13.73047,2.06641 c -2.21549,0.32421 -3.82038,0.48183 -4.85742,0.48633 v -55.92383 z m 0.134766,0.13476 H 104.875 v 55.93164 h 0.0684 c 1.04896,0 2.69564,-0.16492 4.94531,-0.49414 l 13.57617,-2.04492 v 4.04883 H 99.417969 Z"
         id="path1634" /></g><g
       id="path1603"
       style="stroke:#0d2650;stroke-opacity:1"><path
         style="color:#000000;-inkscape-font-specification:Aboreto;stroke:#0d2650;-inkscape-stroke:none;stroke-opacity:1"
         d="m 137.26809,388.65521 v -57.57563 h 11.43288 q 8.8831,0 13.81815,3.70129 4.93505,3.70129 4.93505,10.28137 0,4.8528 -2.87878,8.30734 -2.87878,3.37228 -8.06059,4.60605 v 0.4935 q 7.07358,0.90476 11.02162,4.93506 4.0303,3.94804 4.0303,10.03461 0,7.15582 -5.51081,11.18612 -5.51081,4.03029 -15.46317,4.03029 z m 11.51513,-55.60161 h -5.92207 v 24.67527 h 5.83982 q 12.99564,0 12.99564,-12.33763 0,-12.33764 -12.91339,-12.33764 z m 1.80952,26.6493 h -7.73159 v 26.97829 h 7.73159 q 15.05191,0 15.05191,-13.48915 0,-13.48914 -15.05191,-13.48914 z"
         id="path1638" /><path
         style="color:#000000;-inkscape-font-specification:Aboreto;fill:#ffc107;stroke:#0d2650;-inkscape-stroke:none;stroke-opacity:1"
         d="m 137.20117,331.01172 v 57.71094 h 0.0664 13.32422 c 6.64403,0 11.81437,-1.34466 15.5039,-4.04297 3.68927,-2.69813 5.53907,-6.45233 5.53907,-11.24024 0,-4.07208 -1.35224,-7.43801 -4.05079,-10.08203 -2.63211,-2.68695 -6.30678,-4.32802 -11.00195,-4.93945 v -0.39649 c 3.43792,-0.82838 6.12597,-2.35951 8.04492,-4.60742 v -0.002 c 1.92916,-2.31499 2.89453,-5.10104 2.89453,-8.34961 0,-4.40362 -1.65551,-7.85687 -4.96093,-10.33594 -3.30562,-2.47921 -7.92792,-3.71484 -13.85938,-3.71484 z m 0.13477,0.13476 h 11.36523 c 5.91267,0 10.5029,1.23362 13.77735,3.68946 3.27464,2.45598 4.9082,5.85675 4.9082,10.22656 0,3.22182 -0.95407,5.97261 -2.86328,8.26367 -1.90882,2.23604 -4.57967,3.76404 -8.02344,4.58399 l -0.0527,0.0117 v 0.60743 l 0.0586,0.008 c 4.70475,0.60177 8.36276,2.23981 10.98242,4.91406 v 0.002 c 2.67445,2.61987 4.01172,5.94355 4.01172,9.98633 0,4.75318 -1.8259,8.45526 -5.48438,11.13086 -3.65821,2.67541 -8.79805,4.01758 -15.42382,4.01758 h -13.25586 z m 5.45703,1.83985 v 24.81054 h 5.9082 c 4.34258,0 7.6107,-1.03174 9.79297,-3.10351 2.18227,-2.07177 3.26953,-5.17832 3.26953,-9.30274 0,-4.12434 -1.07953,-7.22895 -3.24805,-9.30078 -2.16851,-2.07183 -5.41719,-3.10351 -9.73242,-3.10351 z m 0.13672,0.13476 h 5.85351 c 4.29369,0 7.50273,1.0257 9.63867,3.06641 2.13595,2.04071 3.20704,5.10238 3.20704,9.20312 0,4.10067 -1.07891,7.16431 -3.22852,9.20508 -2.14961,2.04077 -5.37804,3.06641 -9.69922,3.06641 h -5.77148 z m -0.13672,26.51368 v 27.11328 h 7.79883 c 5.0274,0 8.8106,-1.12553 11.33593,-3.38868 2.52534,-2.26314 3.78516,-5.65901 3.78516,-10.16796 0,-4.50896 -1.25982,-7.90288 -3.78516,-10.16602 -2.52533,-2.26314 -6.30853,-3.39062 -11.33593,-3.39062 z m 0.13672,0.13671 h 7.66211 c 5.00719,0 8.75218,1.12029 11.24414,3.35352 2.49196,2.23323 3.74023,5.58261 3.74023,10.06641 0,4.4838 -1.24827,7.83317 -3.74023,10.0664 -2.49196,2.23324 -6.23695,3.35547 -11.24414,3.35547 h -7.66211 z"
         id="path1640" /></g><g
       id="path1605"
       style="stroke:#0d2650;stroke-opacity:1"><path
         style="color:#000000;-inkscape-font-specification:Aboreto;stroke:#0d2650;-inkscape-stroke:none;stroke-opacity:1"
         d="m 188.01693,388.65521 v -57.57563 h 25.08653 v 4.0303 l -14.39391,-1.89177 q -3.78354,-0.49351 -5.09956,-0.49351 v 25.08652 q 1.06927,0 5.09956,-0.24675 l 13.48915,-0.82251 v 3.78354 l -13.48915,-0.8225 q -4.03029,-0.24676 -5.09956,-0.24676 v 27.55405 q 1.48052,0 5.18181,-0.4935 l 14.55841,-1.89177 v 4.03029 z"
         id="path1644" /><path
         style="color:#000000;-inkscape-font-specification:Aboreto;fill:#ffc107;stroke:#0d2650;-inkscape-stroke:none;stroke-opacity:1"
         d="m 187.94922,331.01172 v 57.71094 h 0.0684 25.40039 v -4.17383 l -14.63477,1.90039 c -2.43379,0.3245 -4.11942,0.48401 -5.10547,0.48828 v -27.41016 c 0.72446,0.002 2.37691,0.0799 5.02735,0.24219 l 13.56054,0.82813 v -3.92774 l -13.56054,0.82617 c -2.65044,0.16227 -4.30289,0.24197 -5.02735,0.24414 v -24.9414 c 0.87925,0.004 2.5359,0.16186 5.02344,0.48633 l 14.4707,1.90234 v -4.17578 z m 0.13476,0.13476 h 24.95118 v 3.88672 l -14.31641,-1.88281 c -2.52335,-0.32914 -4.22357,-0.49414 -5.10938,-0.49414 h -0.0664 v 25.22266 h 0.0664 c 0.71805,0 2.4163,-0.0816 5.10352,-0.2461 l 13.41797,-0.82031 v 3.64062 l -13.41797,-0.81835 c -2.68722,-0.16453 -4.38547,-0.2461 -5.10352,-0.2461 h -0.0664 v 27.68945 h 0.0664 c 0.99453,0 2.72272,-0.16498 5.19141,-0.49414 l 14.48242,-1.88281 v 3.88672 h -25.19922 z"
         id="path1646" /></g><g
       id="path1607"
       style="stroke:#0d2650;stroke-opacity:1"><path
         style="color:#000000;-inkscape-font-specification:Aboreto;stroke:#0d2650;-inkscape-stroke:none;stroke-opacity:1"
         d="m 230.62287,331.07958 h 11.02163 q 8.71859,0 13.48914,3.70129 4.85281,3.61904 4.85281,10.19911 0,5.09956 -3.04329,8.47185 -2.96103,3.37228 -8.63634,4.5238 v 0.4935 q 5.42856,1.06926 8.8831,5.09956 3.45453,4.03029 5.1818,9.95236 1.56277,5.42856 3.04329,8.47184 1.56276,2.96103 3.37228,4.27705 1.89177,1.31601 4.44155,1.89177 v 0.4935 h -3.37229 q -3.61904,0 -6.00431,-1.31601 -2.30303,-1.31602 -3.94804,-4.44155 -1.64502,-3.12553 -3.12554,-8.63635 -2.38527,-8.47184 -6.33332,-12.00863 -3.94804,-3.53679 -9.62335,-3.53679 h -0.49351 v -1.48051 h 0.49351 q 13.24239,0 13.24239,-12.17313 0,-12.00864 -12.41988,-12.00864 h -5.42856 v 55.60161 h -5.59307 z"
         id="path1650" /><path
         style="color:#000000;-inkscape-font-specification:Aboreto;fill:#ffc107;stroke:#0d2650;-inkscape-stroke:none;stroke-opacity:1"
         d="m 230.55469,331.01172 v 0.0684 57.64258 h 5.72851 v -55.60157 h 5.36133 c 4.12906,0 7.2138,0.99665 9.26758,2.98243 2.05378,1.98577 3.08398,4.96776 3.08398,8.95898 0,4.04544 -1.09658,7.06643 -3.28711,9.08008 -2.19052,2.01365 -5.48295,3.02539 -9.88671,3.02539 h -0.56055 v 1.61523 h 0.56055 c 3.76948,0 6.95809,1.17242 9.57812,3.51953 2.61708,2.34447 4.7243,6.33569 6.3125,11.97657 0.98781,3.67684 2.03045,6.55961 3.13086,8.65039 1.10091,2.09173 2.42525,3.5834 3.97461,4.46875 h 0.002 c 1.60285,0.88433 3.61622,1.32422 6.03711,1.32422 h 3.43945 v -0.61524 l -0.0527,-0.0117 c -1.69256,-0.38219 -3.16469,-1.00901 -4.41797,-1.88086 -1.19379,-0.86821 -2.31126,-2.28518 -3.34961,-4.25195 l -0.002,-0.002 c -0.98393,-2.02293 -1.9962,-4.84318 -3.03711,-8.45899 -1.15375,-3.95572 -2.88527,-7.2815 -5.19531,-9.97656 -2.29978,-2.68307 -5.26217,-4.38116 -8.86719,-5.10352 v -0.40039 c 3.76331,-0.77367 6.64438,-2.27636 8.61914,-4.52539 2.03945,-2.26057 3.06055,-5.1031 3.06055,-8.51562 0,-4.4028 -1.62875,-7.82952 -4.87891,-10.25391 h -0.002 c -3.19606,-2.47909 -7.70812,-3.71484 -13.5293,-3.71484 z m 0.13672,0.13476 h 10.95312 c 5.80282,0 10.28267,1.23221 13.44727,3.6875 l 0.002,0.002 c 3.21946,2.40094 4.82422,5.77445 4.82422,10.14453 0,3.38625 -1.00789,6.19018 -3.02539,8.42578 -1.9624,2.23495 -4.82644,3.73833 -8.59961,4.50391 l -0.0547,0.01 v 0.60547 l 0.0547,0.01 c 3.6059,0.71025 6.55215,2.4023 8.8457,5.07812 2.29599,2.67866 4.0187,5.98542 5.16797,9.92578 1.04249,3.62127 2.05704,6.44972 3.04688,8.48438 h 0.002 v 0.002 c 1.04494,1.97989 2.17421,3.41274 3.39258,4.29883 v 0.002 c 1.25419,0.87248 2.73199,1.49414 4.41406,1.88086 v 0.38086 h -3.30469 c -2.40343,0 -4.39352,-0.43705 -5.9707,-1.30664 l -0.002,-0.002 c -1.52038,-0.86951 -2.82804,-2.33947 -3.91993,-4.41407 -1.09294,-2.07658 -2.13487,-4.95018 -3.12109,-8.62109 v -0.002 c -1.59215,-5.6549 -3.70654,-9.66782 -6.35352,-12.03907 -2.64402,-2.3686 -5.87038,-3.55468 -9.66796,-3.55468 h -0.42579 v -1.34571 h 0.42579 c 4.42448,0 7.75296,-1.01649 9.97656,-3.06054 2.2236,-2.04406 3.33398,-5.10972 3.33398,-9.17969 0,-4.01453 -1.04077,-7.03759 -3.12695,-9.05469 -2.08618,-2.0171 -5.21047,-3.02148 -9.36133,-3.02148 h -5.49609 v 55.60156 h -5.45703 z"
         id="path1652" /></g><g
       id="path1609"
       style="stroke:#0d2650;stroke-opacity:1"><path
         style="color:#000000;-inkscape-font-specification:Aboreto;stroke:#0d2650;-inkscape-stroke:none;stroke-opacity:1"
         d="m 283.42797,388.65521 v -57.57563 h 11.43288 q 8.8831,0 13.81815,3.70129 4.93505,3.70129 4.93505,10.28137 0,4.8528 -2.87878,8.30734 -2.87878,3.37228 -8.06059,4.60605 v 0.4935 q 7.07358,0.90476 11.02163,4.93506 4.03029,3.94804 4.03029,10.03461 0,7.15582 -5.51081,11.18612 -5.51081,4.03029 -15.46317,4.03029 z M 294.9431,333.0536 h -5.92206 v 24.67527 h 5.83981 q 12.99564,0 12.99564,-12.33763 0,-12.33764 -12.91339,-12.33764 z m 1.80952,26.6493 h -7.73158 v 26.97829 h 7.73158 q 15.05191,0 15.05191,-13.48915 0,-13.48914 -15.05191,-13.48914 z"
         id="path1656" /><path
         style="color:#000000;-inkscape-font-specification:Aboreto;fill:#ffc107;stroke:#0d2650;-inkscape-stroke:none;stroke-opacity:1"
         d="m 283.35937,331.01172 v 57.71094 h 0.0684 13.32422 c 6.64403,0 11.81438,-1.34466 15.50391,-4.04297 3.68926,-2.69813 5.53906,-6.45233 5.53906,-11.24024 0,-4.07208 -1.35224,-7.43801 -4.05078,-10.08203 -2.63212,-2.68695 -6.30678,-4.32802 -11.00195,-4.93945 v -0.39649 c 3.43701,-0.82849 6.12632,-2.35992 8.04492,-4.60742 v -0.002 c 1.92916,-2.31499 2.89453,-5.10104 2.89453,-8.34961 0,-4.40362 -1.65747,-7.85687 -4.96289,-10.33594 -3.30561,-2.47921 -7.92597,-3.71484 -13.85742,-3.71484 z m 0.13672,0.13476 h 11.36524 c 5.91267,0 10.50289,1.23362 13.77734,3.68946 3.27464,2.45598 4.9082,5.85675 4.9082,10.22656 0,3.22182 -0.95406,5.97261 -2.86328,8.26367 -1.90881,2.23604 -4.58161,3.76404 -8.02539,4.58399 l -0.0508,0.0117 v 0.60743 l 0.0586,0.008 c 4.70475,0.60177 8.36275,2.23981 10.98242,4.91406 v 0.002 c 2.67444,2.61987 4.00976,5.94355 4.00976,9.98633 0,4.75318 -1.82394,8.45526 -5.48242,11.13086 -3.65821,2.67541 -8.79806,4.01758 -15.42383,4.01758 h -13.25586 z m 5.45703,1.83985 v 24.81054 h 5.90821 c 4.34258,0 7.6107,-1.03174 9.79297,-3.10351 2.18226,-2.07177 3.26953,-5.17832 3.26953,-9.30274 0,-4.12434 -1.07954,-7.22895 -3.24805,-9.30078 -2.16851,-2.07183 -5.41719,-3.10351 -9.73242,-3.10351 z m 0.13477,0.13476 h 5.85547 c 4.29369,0 7.50273,1.0257 9.63867,3.06641 2.13595,2.04071 3.20703,5.10238 3.20703,9.20312 0,4.10067 -1.0789,7.16431 -3.22851,9.20508 -2.14961,2.04077 -5.37805,3.06641 -9.69922,3.06641 h -5.77344 z m -0.13477,26.51368 v 27.11328 h 7.79883 c 5.0274,0 8.80865,-1.12553 11.33399,-3.38868 2.52534,-2.26314 3.78711,-5.65901 3.78711,-10.16796 0,-4.50896 -1.26177,-7.90288 -3.78711,-10.16602 -2.52534,-2.26314 -6.30659,-3.39062 -11.33399,-3.39062 z m 0.13477,0.13671 h 7.66406 c 5.0072,0 8.75218,1.12029 11.24414,3.35352 2.49196,2.23323 3.74024,5.58261 3.74024,10.06641 0,4.4838 -1.24828,7.83317 -3.74024,10.0664 -2.49196,2.23324 -6.23694,3.35547 -11.24414,3.35547 h -7.66406 z"
         id="path1658" /></g><g
       id="path1611"
       style="stroke:#0d2650;stroke-opacity:1"><path
         style="color:#000000;-inkscape-font-specification:Aboreto;stroke:#0d2650;-inkscape-stroke:none;stroke-opacity:1"
         d="m 334.17681,388.65521 v -57.57563 h 25.08653 v 4.0303 l -14.39391,-1.89177 q -3.78354,-0.49351 -5.09955,-0.49351 v 25.08652 q 1.06926,0 5.09955,-0.24675 l 13.48915,-0.82251 v 3.78354 l -13.48915,-0.8225 q -4.03029,-0.24676 -5.09955,-0.24676 v 27.55405 q 1.48051,0 5.1818,-0.4935 l 14.55841,-1.89177 v 4.03029 z"
         id="path1662" /><path
         style="color:#000000;-inkscape-font-specification:Aboreto;fill:#ffc107;stroke:#0d2650;-inkscape-stroke:none;stroke-opacity:1"
         d="m 334.10937,331.01172 v 57.71094 h 0.0684 25.40039 v -4.17383 l -14.63476,1.90039 c -2.4338,0.3245 -4.11944,0.48401 -5.10547,0.48828 v -27.41016 c 0.72445,0.002 2.37691,0.0799 5.02734,0.24219 l 13.56055,0.82813 v -3.92774 l -13.56055,0.82617 c -2.65043,0.16227 -4.30289,0.24197 -5.02734,0.24414 v -24.9414 c 0.87924,0.004 2.53589,0.16186 5.02344,0.48633 l 14.46875,1.90234 v -4.17578 z m 0.13477,0.13476 h 24.95117 v 3.88672 l -14.3164,-1.88281 c -2.52336,-0.32914 -4.22359,-0.49414 -5.10938,-0.49414 h -0.0664 v 25.22266 h 0.0664 c 0.71804,0 2.4163,-0.0816 5.10352,-0.2461 l 13.41797,-0.82031 v 3.64062 l -13.41797,-0.81835 c -2.68722,-0.16453 -4.38548,-0.2461 -5.10352,-0.2461 h -0.0664 v 27.68945 h 0.0664 c 0.99452,0 2.72271,-0.16498 5.19141,-0.49414 l 14.48242,-1.88281 v 3.88672 h -25.19922 z"
         id="path1664" /></g><g
       id="path1613"
       style="stroke:#0d2650;stroke-opacity:1"><path
         style="color:#000000;-inkscape-font-specification:Aboreto;stroke:#0d2650;-inkscape-stroke:none;stroke-opacity:1"
         d="m 376.78277,331.07958 h 11.02162 q 8.7186,0 13.48915,3.70129 4.8528,3.61904 4.8528,10.19911 0,5.09956 -3.04328,8.47185 -2.96103,3.37228 -8.63634,4.5238 v 0.4935 q 5.42855,1.06926 8.88309,5.09956 3.45454,4.03029 5.18181,9.95236 1.56277,5.42856 3.04328,8.47184 1.56277,2.96103 3.37229,4.27705 1.89177,1.31601 4.44155,1.89177 v 0.4935 h -3.37229 q -3.61904,0 -6.00431,-1.31601 -2.30303,-1.31602 -3.94805,-4.44155 -1.64502,-3.12553 -3.12553,-8.63635 -2.38528,-8.47184 -6.33332,-12.00863 -3.94804,-3.53679 -9.62336,-3.53679 h -0.4935 v -1.48051 h 0.4935 q 13.2424,0 13.2424,-12.17313 0,-12.00864 -12.41989,-12.00864 h -5.42856 v 55.60161 h -5.59306 z"
         id="path1668" /><path
         style="color:#000000;-inkscape-font-specification:Aboreto;fill:#ffc107;stroke:#0d2650;-inkscape-stroke:none;stroke-opacity:1"
         d="m 376.71484,331.01172 v 0.0684 57.64258 h 5.72852 v -55.60157 h 5.36133 c 4.12906,0 7.21379,0.99665 9.26758,2.98243 2.05378,1.98577 3.08398,4.96776 3.08398,8.95898 0,4.04544 -1.09854,7.06643 -3.28906,9.08008 -2.19053,2.01365 -5.481,3.02539 -9.88477,3.02539 h -0.5625 v 1.61523 h 0.5625 c 3.7695,0 6.9581,1.17242 9.57813,3.51953 2.61707,2.34447 4.72428,6.33569 6.3125,11.97657 0.9878,3.67684 2.03044,6.55961 3.13086,8.65039 1.10091,2.09173 2.42525,3.5834 3.97461,4.46875 1.60284,0.88433 3.61622,1.32422 6.0371,1.32422 h 3.44141 v -0.61524 l -0.0527,-0.0117 c -1.69256,-0.38219 -3.16469,-1.00901 -4.41797,-1.88086 -1.194,-0.86836 -2.31306,-2.28464 -3.35156,-4.25195 v -0.002 c -0.984,-2.02296 -1.99808,-4.84292 -3.03907,-8.45899 -1.15375,-3.95572 -2.88526,-7.2815 -5.19531,-9.97656 -2.29977,-2.68307 -5.26022,-4.38116 -8.86523,-5.10352 v -0.40039 c 3.76219,-0.77344 6.64248,-2.27552 8.61718,-4.52343 2.04022,-2.26078 3.0625,-5.10442 3.0625,-8.51758 0,-4.4028 -1.62875,-7.82952 -4.8789,-10.25391 h -0.002 c -3.19605,-2.47909 -7.70811,-3.71484 -13.52929,-3.71484 z m 0.13477,0.13476 h 10.95508 c 5.80282,0 10.28267,1.23221 13.44726,3.6875 l 0.002,0.002 c 3.21945,2.40094 4.82422,5.77445 4.82421,10.14453 0,3.38625 -1.00789,6.19018 -3.02539,8.42578 -1.9624,2.23495 -4.82643,3.73833 -8.59961,4.50391 l -0.0547,0.01 v 0.60547 l 0.0547,0.01 c 3.60589,0.71025 6.55215,2.4023 8.84571,5.07812 2.29599,2.67866 4.01869,5.98542 5.16797,9.92578 1.04248,3.62127 2.05704,6.44972 3.04687,8.48438 l 0.002,0.002 c 1.04495,1.97989 2.17421,3.41274 3.39258,4.29883 v 0.002 c 1.25399,0.87234 2.73039,1.49217 4.41211,1.87891 v 0.38281 h -3.30469 c -2.40449,0 -4.39319,-0.43824 -5.9707,-1.30859 v 0.002 c -1.52135,-0.86934 -2.82943,-2.34038 -3.92187,-4.41602 -1.09295,-2.07658 -2.13294,-4.95018 -3.11914,-8.62109 v -0.002 c -1.59216,-5.6549 -3.70655,-9.66782 -6.35352,-12.03907 -2.64402,-2.3686 -5.87038,-3.55468 -9.66797,-3.55468 h -0.42578 v -1.34571 h 0.42578 c 4.42449,0 7.75296,-1.01649 9.97656,-3.06054 2.22361,-2.04406 3.33204,-5.10972 3.33204,-9.17969 0,-4.01453 -1.03883,-7.03759 -3.125,-9.05469 -2.08618,-2.0171 -5.21047,-3.02148 -9.36133,-3.02148 h -5.4961 v 55.60156 h -5.45898 z"
         id="path1670" /></g><g
       id="path1615"
       style="stroke:#0d2650;stroke-opacity:1"><path
         style="color:#000000;-inkscape-font-specification:Aboreto;stroke:#0d2650;-inkscape-stroke:none;stroke-opacity:1"
         d="m 456.64837,361.34791 v -1.97402 h 20.80948 v 22.37225 q -3.78354,3.78354 -9.29435,5.92206 -5.42856,2.13853 -12.17314,2.13853 -6.90907,0 -12.74889,-2.22078 -5.83981,-2.30302 -10.19911,-6.33332 -4.3593,-4.11254 -6.82682,-9.5411 -2.38528,-5.42856 -2.38528,-11.84413 0,-6.41557 2.38528,-11.84413 2.46752,-5.42856 6.82682,-9.45886 4.3593,-4.11254 10.19911,-6.33332 5.83982,-2.30302 12.74889,-2.30302 2.96104,0 6.41557,0.41125 3.53679,0.41126 6.74458,1.15152 3.20778,0.658 5.42856,1.64501 l -0.41126,4.60606 h -0.4935 q -3.29004,-2.87879 -7.89609,-4.3593 -4.60605,-1.48052 -9.78786,-1.48052 -7.73158,0 -13.5714,3.53679 -5.83981,3.45454 -9.12985,9.78786 -3.20778,6.25107 -3.20778,14.64066 0,8.38959 3.20778,14.72291 3.29004,6.25107 9.12985,9.78786 5.83982,3.45453 13.5714,3.45453 4.77056,0 8.80085,-1.31601 4.11254,-1.31602 7.07358,-3.78354 v -21.38524 z"
         id="path1674" /><path
         style="color:#000000;-inkscape-font-specification:Aboreto;fill:#ffc107;stroke:#0d2650;-inkscape-stroke:none;stroke-opacity:1"
         d="m 455.99023,329.86133 c -4.61355,0 -8.87176,0.76795 -12.77343,2.30664 -3.90094,1.48346 -7.30796,3.59979 -10.22071,6.34765 -2.91264,2.69283 -5.19318,5.85352 -6.84179,9.48047 -1.59414,3.62802 -2.39258,7.58567 -2.39258,11.8711 0,4.28542 0.79844,8.24307 2.39258,11.87109 v 0.002 c 1.64855,3.62684 3.92943,6.81499 6.84179,9.5625 2.91254,2.69273 6.32032,4.80753 10.22071,6.34571 3.90149,1.48367 8.16015,2.22656 12.77343,2.22656 4.50353,0 8.56935,-0.71534 12.19727,-2.14453 3.68154,-1.42866 6.7889,-3.40609 9.31836,-5.93555 l 0.0195,-0.0215 v -22.4668 h -20.94531 v 2.10938 h 0.0684 15.14843 v 21.2832 c -1.96197,1.62944 -4.30172,2.88233 -7.02539,3.7539 h -0.002 c -2.67937,0.8749 -5.60514,1.3125 -8.7793,1.3125 -5.1443,10e-6 -9.65515,-1.14895 -13.53711,-3.44531 -3.88245,-2.35135 -6.91544,-5.60303 -9.10351,-9.75976 v -0.002 c -2.13254,-4.2111 -3.20117,-9.10768 -3.20117,-14.6914 0,-5.58444 1.06826,-10.45294 3.20117,-14.60938 2.18813,-4.21214 5.22111,-7.46313 9.10351,-9.75976 v -0.002 c 3.8819,-2.351 8.39305,-3.52734 13.53711,-3.52734 3.4481,0 6.70392,0.49376 9.76758,1.47852 3.06301,0.98453 5.68519,2.43302 7.8711,4.3457 l 0.0195,0.0156 h 0.58203 l 0.41992,-4.71484 -0.043,-0.0195 c -1.48646,-0.66065 -3.30133,-1.21101 -5.44336,-1.65039 l 0.002,0.002 c -2.14116,-0.49411 -4.39181,-0.87986 -6.75196,-1.1543 -2.30527,-0.27443 -4.44667,-0.41015 -6.42383,-0.41015 z m 0,0.13476 c 1.9709,0 4.10744,0.13626 6.40821,0.41016 2.35556,0.27391 4.60043,0.65749 6.73633,1.15039 h 0.002 c 2.11728,0.43431 3.90137,0.97881 5.36914,1.62695 l -0.40039,4.49024 h -0.41211 c -2.19619,-1.91574 -4.82687,-3.36944 -7.89453,-4.35547 -3.07773,-0.98927 -6.34762,-1.48438 -9.8086,-1.48438 -5.16469,0 -9.70094,1.18217 -13.60546,3.54688 -3.90401,2.30941 -6.95767,5.58218 -9.15625,9.81445 -2.14413,4.17831 -3.21485,9.0702 -3.21485,14.67188 0,5.60167 1.07089,10.52096 3.21485,14.7539 2.19859,4.17732 5.25275,7.45037 9.15625,9.81446 3.90446,2.30967 8.44101,3.46484 13.60546,3.46484 3.18659,0 6.12793,-0.44053 8.82227,-1.32031 v 0.002 c 2.74889,-0.87965 5.11439,-2.14579 7.0957,-3.79687 l 0.0234,-0.0195 V 361.28125 H 456.7168 v -1.83984 h 20.67382 v 22.27343 c -2.51207,2.50688 -5.59427,4.47123 -9.25195,5.89063 -3.61015,1.42218 -7.6592,2.13281 -12.14844,2.13281 -4.59879,0 -8.83968,-0.73747 -12.72461,-2.21484 -3.88601,-1.53251 -7.27787,-3.63931 -10.17773,-6.32032 -2.90002,-2.73586 -5.16908,-5.90829 -6.81055,-9.51953 -1.58623,-3.61005 -2.3789,-7.54774 -2.3789,-11.8164 0,-4.26866 0.79267,-8.20636 2.3789,-11.81641 1.64142,-3.61112 3.9108,-6.75659 6.81055,-9.4375 2.89965,-2.73551 6.29227,-4.84078 10.17773,-6.31836 3.88475,-1.532 8.12609,-2.29883 12.72461,-2.29883 z"
         id="path1676" /></g></g><g
     aria-label="Library"
     id="text399-5"
     style="font-size:82.2509px;fill:#0d2650;stroke:#0d2650;stroke-width:0.135268;stroke-opacity:1"><g
       id="path1678"
       style="stroke:#0d2650;stroke-opacity:1"><path
         style="color:#000000;-inkscape-font-specification:Aboreto;stroke:#0d2650;-inkscape-stroke:none;stroke-opacity:1"
         d="m 97.768133,411.23425 h 5.593057 v 55.93061 q 1.56277,0 4.93506,-0.49351 l 13.65365,-2.05627 v 4.1948 H 97.768133 Z"
         id="path1695" /><path
         style="color:#000000;-inkscape-font-specification:Aboreto;fill:#ffc107;stroke:#0d2650;-inkscape-stroke:none;stroke-opacity:1"
         d="m 97.701172,411.16602 v 0.0684 57.64258 h 24.316408 v -4.33984 l -13.73047,2.06641 c -2.21549,0.32422 -3.82038,0.48183 -4.85742,0.48632 v -55.92382 z m 0.134765,0.13671 h 5.457033 v 55.92969 h 0.0684 c 1.04896,0 2.69564,-0.16492 4.94531,-0.49414 l 13.57617,-2.04492 v 4.04883 H 97.835937 Z"
         id="path1697" /></g><g
       id="path1680"
       style="stroke:#0d2650;stroke-opacity:1"><path
         style="color:#000000;-inkscape-font-specification:Aboreto;stroke:#0d2650;-inkscape-stroke:none;stroke-opacity:1"
         d="m 135.68583,468.80988 v -57.57563 h 5.59307 v 57.57563 z"
         id="path1701" /><path
         style="color:#000000;-inkscape-font-specification:Aboreto;fill:#ffc107;stroke:#0d2650;-inkscape-stroke:none;stroke-opacity:1"
         d="m 135.61914,411.16602 v 57.71093 h 0.0664 5.66015 v -57.71093 z m 0.13477,0.13671 h 5.45703 v 57.43946 h -5.45703 z"
         id="path1703" /></g><g
       id="path1682"
       style="stroke:#0d2650;stroke-opacity:1"><path
         style="color:#000000;-inkscape-font-specification:Aboreto;stroke:#0d2650;-inkscape-stroke:none;stroke-opacity:1"
         d="m 162.66405,468.80988 v -57.57563 h 11.43288 q 8.88309,0 13.81815,3.70129 4.93505,3.70129 4.93505,10.28136 0,4.8528 -2.87878,8.30734 -2.87878,3.37229 -8.06059,4.60605 v 0.49351 q 7.07358,0.90475 11.02162,4.93505 4.0303,3.94804 4.0303,10.03461 0,7.15583 -5.51081,11.18612 -5.51081,4.0303 -15.46317,4.0303 z m 11.51513,-55.60161 h -5.92207 v 24.67527 h 5.83982 q 12.99564,0 12.99564,-12.33764 0,-12.33763 -12.91339,-12.33763 z m 1.80952,26.64929 h -7.73159 v 26.97829 h 7.73159 q 15.05191,0 15.05191,-13.48914 0,-13.48915 -15.05191,-13.48915 z"
         id="path1707" /><path
         style="color:#000000;-inkscape-font-specification:Aboreto;fill:#ffc107;stroke:#0d2650;-inkscape-stroke:none;stroke-opacity:1"
         d="m 162.5957,411.16602 v 57.71093 h 0.0684 13.32422 c 6.64403,0 11.81438,-1.34465 15.50391,-4.04297 3.68926,-2.69811 5.53906,-6.45232 5.53906,-11.24023 0,-4.07209 -1.35224,-7.43801 -4.05078,-10.08203 -2.63211,-2.68695 -6.30679,-4.32803 -11.00195,-4.93945 v -0.39649 c 3.43701,-0.82848 6.12632,-2.35991 8.04492,-4.60742 1.92915,-2.31499 2.89453,-5.10299 2.89453,-8.35156 0,-4.40362 -1.65747,-7.85687 -4.96289,-10.33594 -3.30562,-2.47921 -7.92598,-3.71484 -13.85742,-3.71484 z m 0.13672,0.13671 h 11.36524 c 5.91266,0 10.50289,1.23167 13.77734,3.6875 3.27464,2.45599 4.9082,5.85677 4.9082,10.22657 0,3.22182 -0.95406,5.97261 -2.86328,8.26367 -1.90882,2.23605 -4.58161,3.76404 -8.02539,4.58398 l -0.0508,0.0117 v 0.60742 l 0.0586,0.008 c 4.70475,0.60176 8.36276,2.23981 10.98243,4.91406 v 0.002 c 2.67445,2.61987 4.00976,5.94355 4.00976,9.98633 0,4.75319 -1.82395,8.45526 -5.48242,11.13086 -3.65821,2.67541 -8.79806,4.01758 -15.42383,4.01758 h -13.25586 z m 5.45703,1.83789 v 24.81055 h 5.90821 c 4.34257,0 7.6107,-1.03174 9.79296,-3.10351 2.18227,-2.07178 3.26954,-5.17637 3.26954,-9.30079 0,-4.12433 -1.08149,-7.2309 -3.25,-9.30273 -2.16852,-2.07183 -5.41524,-3.10352 -9.73047,-3.10352 z m 0.13477,0.13477 h 5.85547 c 4.29369,0 7.50272,1.0257 9.63867,3.06641 2.13595,2.04071 3.20703,5.10433 3.20703,9.20507 0,4.10067 -1.07891,7.16236 -3.22852,9.20313 -2.1496,2.04077 -5.37804,3.06641 -9.69921,3.06641 h -5.77344 z m -0.13477,26.51367 v 27.11524 h 7.79883 c 5.0274,0 8.80865,-1.12748 11.33399,-3.39063 2.52533,-2.26314 3.78515,-5.65706 3.78515,-10.16601 0,-4.50896 -1.25982,-7.90483 -3.78515,-10.16797 -2.52534,-2.26315 -6.30659,-3.39063 -11.33399,-3.39063 z m 0.13477,0.13672 h 7.66406 c 5.0072,0 8.75218,1.12028 11.24414,3.35352 2.49196,2.23323 3.74024,5.58456 3.74024,10.06836 0,4.48379 -1.24828,7.83317 -3.74024,10.0664 -2.49196,2.23323 -6.23694,3.35352 -11.24414,3.35352 h -7.66406 z"
         id="path1709" /></g><g
       id="path1684"
       style="stroke:#0d2650;stroke-opacity:1"><path
         style="color:#000000;-inkscape-font-specification:Aboreto;stroke:#0d2650;-inkscape-stroke:none;stroke-opacity:1"
         d="m 213.41291,411.23425 h 11.02162 q 8.71859,0 13.48915,3.70129 4.8528,3.61904 4.8528,10.19911 0,5.09955 -3.04328,8.47184 -2.96104,3.37229 -8.63635,4.5238 v 0.49351 q 5.42856,1.06926 8.8831,5.09955 3.45454,4.0303 5.18181,9.95236 1.56276,5.42856 3.04328,8.47184 1.56277,2.96103 3.37229,4.27705 1.89177,1.31601 4.44154,1.89177 v 0.49351 h -3.37228 q -3.61904,0 -6.00432,-1.31602 -2.30302,-1.31601 -3.94804,-4.44155 -1.64502,-3.12553 -3.12554,-8.63634 -2.38527,-8.47184 -6.33331,-12.00863 -3.94805,-3.53679 -9.62336,-3.53679 h -0.49351 v -1.48052 h 0.49351 q 13.24239,0 13.24239,-12.17313 0,-12.00863 -12.41988,-12.00863 h -5.42856 v 55.60161 h -5.59306 z"
         id="path1713" /><path
         style="color:#000000;-inkscape-font-specification:Aboreto;fill:#ffc107;stroke:#0d2650;-inkscape-stroke:none;stroke-opacity:1"
         d="m 213.3457,411.16602 v 0.0684 57.64258 h 5.72852 v -55.60156 h 5.35937 c 4.12906,0 7.21576,0.9986 9.26953,2.98438 2.05378,1.98577 3.08399,4.96581 3.08399,8.95703 0,4.04544 -1.09854,7.06643 -3.28906,9.08007 -2.19053,2.01365 -5.48296,3.0254 -9.88672,3.0254 h -0.56055 v 1.61523 h 0.56055 c 3.76948,0 6.95809,1.17242 9.57812,3.51953 2.61708,2.34447 4.72625,6.33568 6.31446,11.97656 0.98781,3.67684 2.03044,6.55961 3.13086,8.65039 1.10091,2.09174 2.42526,3.58341 3.9746,4.46875 1.60286,0.88434 3.61623,1.32422 6.03711,1.32422 h 3.43946 v -0.61523 l -0.0527,-0.0117 c -1.69191,-0.38205 -3.16304,-1.00952 -4.41601,-1.88086 h -0.002 c -1.19361,-0.86843 -2.31139,-2.28521 -3.34961,-4.25195 v -0.002 c -0.98399,-2.02295 -1.99807,-4.84291 -3.03906,-8.45898 -1.15375,-3.95571 -2.88526,-7.2815 -5.19531,-9.97656 -2.29978,-2.68307 -5.26215,-4.38116 -8.86719,-5.10352 v -0.39844 c 3.76332,-0.77367 6.64438,-2.2783 8.61914,-4.52734 2.03945,-2.26057 3.06055,-5.10311 3.06055,-8.51562 0,-4.40334 -1.62796,-7.82948 -4.87891,-10.25391 v 0.002 c -3.19613,-2.47975 -7.70929,-3.71679 -13.53125,-3.71679 z m 0.13477,0.13671 h 10.95312 c 5.80282,0 10.28462,1.23026 13.44922,3.68555 v 0.002 c 3.21945,2.40095 4.82617,5.77445 4.82617,10.14454 0,3.38624 -1.0079,6.19017 -3.02539,8.42578 l -0.002,0.002 c -1.96241,2.23496 -4.82448,3.73638 -8.59766,4.50195 l -0.0547,0.01 v 0.60547 l 0.0547,0.01 c 3.6059,0.71025 6.5502,2.40232 8.84375,5.07813 2.296,2.67866 4.02065,5.98737 5.16993,9.92773 1.04248,3.62127 2.05703,6.44777 3.04687,8.48242 v 0.002 c 1.04495,1.97989 2.17421,3.41274 3.39258,4.29883 l 0.002,0.002 c 1.25399,0.87234 2.73039,1.49216 4.41211,1.8789 v 0.38282 h -3.30469 c -2.40449,0 -4.39318,-0.43629 -5.9707,-1.30664 -1.52134,-0.86934 -2.82943,-2.33842 -3.92187,-4.41407 -1.09295,-2.07658 -2.13293,-4.95214 -3.11914,-8.62304 -1.59216,-5.6549 -3.70655,-9.66977 -6.35352,-12.04102 -2.64403,-2.3686 -5.87234,-3.55469 -9.66992,-3.55469 h -0.42578 v -1.3457 h 0.42578 c 4.42449,0 7.75491,-1.01649 9.97851,-3.06055 2.22361,-2.04405 3.33203,-5.10971 3.33203,-9.17968 0,-4.01453 -1.03882,-7.03759 -3.125,-9.05469 -2.08617,-2.0171 -5.21242,-3.02149 -9.36328,-3.02149 h -5.49609 v 55.60157 h -5.45703 z"
         id="path1715" /></g><g
       id="path1686"
       style="stroke:#0d2650;stroke-opacity:1"><path
         style="color:#000000;-inkscape-font-specification:Aboreto;stroke:#0d2650;-inkscape-stroke:none;stroke-opacity:1"
         d="m 260.13149,468.80988 22.12549,-57.57563 h 5.09956 l 22.12549,57.57563 h -6.00432 l -10.19911,-26.9783 h -18.67095 l -8.47185,26.9783 z m 22.70125,-53.29859 -7.64934,24.34627 h 17.35494 l -9.2121,-24.34627 z"
         id="path1719" /><path
         style="color:#000000;-inkscape-font-specification:Aboreto;fill:#ffc107;stroke:#0d2650;-inkscape-stroke:none;stroke-opacity:1"
         d="m 282.21094,411.16602 -22.17774,57.71093 h 0.0977 6.05469 l 8.47265,-26.97851 h 18.57422 l 10.19922,26.97851 h 6.14844 l -22.17774,-57.71093 z m 0.0918,0.13671 h 5.00782 l 22.07226,57.43946 h -5.85742 l -10.19922,-26.97852 h -18.76758 l -8.47265,26.97852 h -5.85547 z m 0.48047,4.14063 -0.0156,0.0469 -7.67578,24.43555 h 17.54492 l -9.26367,-24.48242 z m 0.0977,0.13476 h 0.39844 l 9.16015,24.21094 h -17.16406 z"
         id="path1721" /></g><g
       id="path1688"
       style="stroke:#0d2650;stroke-opacity:1"><path
         style="color:#000000;-inkscape-font-specification:Aboreto;stroke:#0d2650;-inkscape-stroke:none;stroke-opacity:1"
         d="m 322.80675,411.23425 h 11.02162 q 8.7186,0 13.48915,3.70129 4.8528,3.61904 4.8528,10.19911 0,5.09955 -3.04328,8.47184 -2.96103,3.37229 -8.63634,4.5238 v 0.49351 q 5.42856,1.06926 8.88309,5.09955 3.45454,4.0303 5.18181,9.95236 1.56277,5.42856 3.04328,8.47184 1.56277,2.96103 3.37229,4.27705 1.89177,1.31601 4.44155,1.89177 v 0.49351 h -3.37229 q -3.61904,0 -6.00431,-1.31602 -2.30303,-1.31601 -3.94805,-4.44155 -1.64501,-3.12553 -3.12553,-8.63634 -2.38528,-8.47184 -6.33332,-12.00863 -3.94804,-3.53679 -9.62336,-3.53679 h -0.4935 v -1.48052 h 0.4935 q 13.2424,0 13.2424,-12.17313 0,-12.00863 -12.41989,-12.00863 h -5.42856 v 55.60161 h -5.59306 z"
         id="path1725" /><path
         style="color:#000000;-inkscape-font-specification:Aboreto;fill:#ffc107;stroke:#0d2650;-inkscape-stroke:none;stroke-opacity:1"
         d="m 322.73828,411.16602 v 0.0684 57.64258 h 5.72852 v -55.60156 h 5.36132 c 4.12907,0 7.2138,0.9986 9.26758,2.98438 2.05378,1.98577 3.08399,4.96581 3.08399,8.95703 0,4.04544 -1.09659,7.06643 -3.28711,9.08007 -2.19053,2.01365 -5.48295,3.0254 -9.88672,3.0254 h -0.56055 v 1.61523 h 0.56055 c 3.76949,0 6.9581,1.17242 9.57812,3.51953 2.61708,2.34447 4.72429,6.33568 6.3125,11.97656 0.98781,3.67684 2.03046,6.55961 3.13086,8.65039 1.10092,2.09174 2.42526,3.58341 3.97461,4.46875 h 0.002 c 1.60284,0.88434 3.61622,1.32422 6.03711,1.32422 h 3.43945 v -0.61523 l -0.0527,-0.0117 c -1.69192,-0.38205 -3.16304,-1.00952 -4.41601,-1.88086 h -0.002 c -1.19341,-0.86828 -2.31156,-2.28574 -3.34961,-4.25195 l -0.002,-0.002 c -0.98392,-2.02292 -1.99619,-4.84318 -3.03711,-8.45898 -1.15375,-3.95571 -2.88526,-7.2815 -5.19531,-9.97656 -2.29976,-2.68307 -5.26216,-4.38116 -8.86719,-5.10352 v -0.39844 c 3.76332,-0.77367 6.64438,-2.2783 8.61914,-4.52734 2.03945,-2.26057 3.06055,-5.10311 3.06055,-8.51562 0,-4.4023 -1.62949,-7.82762 -4.87891,-10.25196 l -0.002,-0.002 c -3.19601,-2.47868 -7.70859,-3.71484 -13.5293,-3.71484 z m 0.13672,0.13671 h 10.95312 c 5.80283,0 10.28267,1.23026 13.44727,3.68555 l 0.002,0.002 c 3.21945,2.40095 4.82618,5.77445 4.82618,10.14454 0,3.38624 -1.00986,6.19017 -3.02735,8.42578 v 0.002 c -1.9624,2.23496 -4.82643,3.73638 -8.59961,4.50195 l -0.0527,0.01 v 0.60547 l 0.0547,0.01 c 3.60589,0.71025 6.5502,2.40232 8.84375,5.07813 2.29599,2.67866 4.01869,5.98737 5.16796,9.92773 1.04249,3.62127 2.05705,6.44777 3.04688,8.48242 h 0.002 v 0.002 c 1.04495,1.97989 2.17421,3.41274 3.39258,4.29883 v 0.002 c 1.25419,0.87248 2.73199,1.49413 4.41406,1.88086 v 0.38086 h -3.30468 c -2.40372,0 -4.39344,-0.43685 -5.97071,-1.30664 h -0.002 c -1.52082,-0.86943 -2.82778,-2.33899 -3.91992,-4.41407 -1.09294,-2.07658 -2.13488,-4.95214 -3.1211,-8.62304 -1.59215,-5.6549 -3.70654,-9.66977 -6.35351,-12.04102 -2.64402,-2.3686 -5.87038,-3.55469 -9.66797,-3.55469 h -0.42578 v -1.3457 h 0.42578 c 4.42449,0 7.75491,-1.01649 9.97851,-3.06055 2.22361,-2.04405 3.33204,-5.10971 3.33204,-9.17968 0,-4.01453 -1.04078,-7.03759 -3.12696,-9.05469 -2.08617,-2.0171 -5.21047,-3.02148 -9.36133,-3.02149 h -5.49609 v 55.60157 H 322.875 Z"
         id="path1727" /></g><g
       id="path1690"
       style="stroke:#0d2650;stroke-opacity:1"><path
         style="color:#000000;-inkscape-font-specification:Aboreto;stroke:#0d2650;-inkscape-stroke:none;stroke-opacity:1"
         d="m 384.65939,468.80988 v -24.34627 l -20.39823,-33.22936 h 6.25107 l 18.34195,30.10382 h 0.49351 l 14.64066,-30.10382 h 6.25107 l -19.65797,32.07785 v 25.49778 z"
         id="path1731" /><path
         style="color:#000000;-inkscape-font-specification:Aboreto;fill:#ffc107;stroke:#0d2650;-inkscape-stroke:none;stroke-opacity:1"
         d="m 364.14062,411.16602 20.45118,33.3164 v 24.39453 h 0.0684 5.98828 v -25.54492 l 19.71093,-32.16601 h -6.41406 l -14.64062,30.10351 h -0.41211 l -18.3418,-30.10351 z m 0.24219,0.13671 h 6.0918 l 18.3418,30.10352 h 0.57421 l 14.64063,-30.10352 h 6.08789 l -19.60547,31.99024 v 25.44922 h -5.78711 v -24.29688 z"
         id="path1733" /></g></g><g
     id="g6490"
     style="fill:#0d2650;fill-opacity:1"
     transform="matrix(0.23444372,0,0,0.23444372,108.72829,19.490535)"><path
       d="M 768.1,868.57 C 816.123,830.781 914.86,729.59 949.17,614.42 871.037,518.299 542.22,108.18 466.31,13.46 458.5444,103.355 379.56,292.52 242.52,355.75 179.555,386.469 116.8,405.621 92.91,412.402 l 468.93,567.84 c 52.98,-17.09 157.66,-73.527 206.26,-111.68 z"
       id="path6478"
       style="fill:#0d2650;fill-opacity:1" /><path
       d="m 1084.9,904.22 c -78,45.371 -160.57,87.371 -248.09,119.15 -103.59,37.609 -228.6,80.172 -268.63,91.969 v 61.523 l 516.55,-185.75 z"
       id="path6480"
       style="fill:#0d2650;fill-opacity:1" /><path
       d="m 82.691,430.38 v 170.68 l 465.75,574.29 0.39453,-180.52 z"
       id="path6482"
       style="fill:#0d2650;fill-opacity:1" /><path
       d="m 1064.6,845.04 c -60.215,47.23 -136.63,95.051 -219.34,136.36 -78.254,39.191 -250.55,92.016 -277.12,100.07 v 13.727 c 44.23,-13.078 156.43,-46.777 254.84,-84.156 109.25,-41.484 265.44,-139.54 265.44,-139.54 z"
       id="path6484"
       style="fill:#0d2650;fill-opacity:1" /><path
       d="m 970.52,610.02 -1.3672,4.8359 c -34.211,121.7 -135,226.3 -189.14,268.91 -50.699,39.828 -156.11,96.648 -211.86,114.73 v 26.016 c 78.359,-24.406 187.87,-76.32 248.65,-119.06 104.39,-73.535 206.34,-175.56 269.03,-268.85 l 0.5625,0.43359 c -70.617,-79.727 -463.14,-529.02 -488.58,-561.32 -8.6289,16.285 -16.414,27.18 -29.062,34.645 129.98,162.1 343.18,427.77 398.61,495.77 z"
       id="path6486"
       style="fill:#0d2650;fill-opacity:1" /><path
       d="m 1047.9,719.1 c 0,0 -139.05,145.2 -219.94,202.15 -68.352,48.098 -174,95.305 -259.77,122.02 v 17.977 c 8.3047,-2.543 22.055,-6.793 39.215,-12.254 63.191,-20.125 172.92,-56.664 229.27,-84.863 111.66,-55.777 211.48,-123.29 274.01,-184.63 0.6484,-0.63672 1.2734,-1.2734 1.9336,-1.9219 z"
       id="path6488"
       style="fill:#0d2650;fill-opacity:1" /></g></svg>
